<svg xmlns="http://www.w3.org/2000/svg" width="55.33" height="55.33" viewBox="0 0 55.33 55.33"><polyline points="17.66 52.66 2.66 52.66 2.66 37.66" fill="none" stroke="#000" stroke-miterlimit="10" stroke-width="2"/><polyline points="52.66 37.66 52.66 52.66 37.66 52.66" fill="none" stroke="#000" stroke-miterlimit="10" stroke-width="2"/><polyline points="37.66 2.66 52.66 2.66 52.66 17.66" fill="none" stroke="#000" stroke-miterlimit="10" stroke-width="2"/><polyline points="2.66 17.66 2.66 2.66 17.66 2.66" fill="none" stroke="#000" stroke-miterlimit="10" stroke-width="2"/><path d="M25.08,22.79c.44.2,1.1.3,1.1.6s-.42.32-.64.34-1.46-.12-2.42-.12-2.12.12-2.26.12-.66-.14-.66-.34.66-.4,1.1-.6a1.62,1.62,0,0,0,.94-1.68L22,14.81c0-.4-.36-.31-.52.06l-2.7,6.2A8.71,8.71,0,0,1,17.65,23c-.19,0-.35-.16-.77-1.24l-2.47-6.3c-.29-.76-.46-.5-.5,0L13.57,21c0,.54.1,1.52.62,1.76s1.1.3,1.1.6-.42.32-.64.34-1-.12-2-.12-1.7.12-1.84.12-.66-.14-.66-.34.64-.4,1.1-.6a2.49,2.49,0,0,0,1.16-2.1l.68-5.32c.18-1.42-.14-1.8-.64-2.26s-1.08-.64-1.08-1,.44-.28.68-.28c.72,0,1.3.1,2.22.1.54,0,.88.36,1.27,1.26L17.89,19c.17.41.26.74.63,0l3.14-6.52c.22-.46.5-.46,1-.46s1.9-.2,2.54-.2c.24,0,.32.14.32.34s-.16.26-1,.6c-.62.26-.84.66-.78,1.8l.34,6.6A1.74,1.74,0,0,0,25.08,22.79Z"/><path d="M38.56,15.87A3.69,3.69,0,0,1,41,15.09a2.69,2.69,0,0,1,2.5,2.78v3.62a1.32,1.32,0,0,0,.76,1.32c.54.16.72.32.72.52s0,.4-.54.4-1.44-.12-1.76-.12-1,.12-1.48.12-.6-.2-.6-.4.24-.36.78-.52c.36-.1.46-.78.46-1.28V18.47c0-1.18-.7-2.34-1.74-2.34a1.94,1.94,0,0,0-2,2.2v3.2c0,.5.08,1.16.47,1.28s.76.32.76.52-.06.4-.58.4-1.15-.12-1.46-.12-1.05.12-1.49.12-.6-.2-.6-.4.24-.36.78-.52c.36-.1.46-.78.46-1.28V18.47c0-1.18-.7-2.34-1.74-2.34s-2,.68-2,2.2l0,3.2c0,.5.08,1.16.46,1.28.54.16.76.32.76.52s-.06.4-.58.4-1.14-.12-1.46-.12-1.34.12-1.78.12-.6-.2-.6-.4.24-.36.78-.52a1.28,1.28,0,0,0,.76-1.28V17.65a1.28,1.28,0,0,0-.82-1c-.22-.08-.42-.2-.42-.42s.32-.38.58-.5a15.63,15.63,0,0,1,2.08-.78c.24,0,.24.18.24.56V16c0,.3.24,0,.4-.12a3.69,3.69,0,0,1,2.48-.78,2.5,2.5,0,0,1,2.07,1.22c.05.08.09.1.13.1S38.18,16.19,38.56,15.87Z"/><path d="M19.23,37a4.74,4.74,0,0,1-4.48,4.78,4.34,4.34,0,0,1,0-8.68C16.93,33.09,19.23,34.81,19.23,37Zm-4.38,3.46a3.13,3.13,0,1,0-.21-6.26c-1.54,0-2.86,1.72-2.86,3.26A3.17,3.17,0,0,0,14.85,40.45Z"/><path d="M32.43,37A4.74,4.74,0,0,1,28,41.77a4.41,4.41,0,0,1-4.21-4.42A4.46,4.46,0,0,1,28,33.09C30.13,33.09,32.43,34.81,32.43,37Zm-4.38,3.46a3.13,3.13,0,1,0-.2-6.26c-1.54,0-2.87,1.72-2.87,3.26A3.17,3.17,0,0,0,28.05,40.45Z"/><path d="M43.86,30.65c0,.14-.34.5-.85.74a6.5,6.5,0,0,0-3.35,3.24c-.06.18.24.1.34.06a4,4,0,0,1,1.12-.16c1.82,0,3.83,1.38,3.83,3.14A4.24,4.24,0,0,1,41,41.89c-2.6,0-4.08-2.1-4.08-4.8s2.76-5.3,5.28-6.48a3,3,0,0,1,1.23-.32C43.75,30.29,43.86,30.41,43.86,30.65ZM41.32,41c1.12,0,1.7-1.56,1.7-2.86a2.83,2.83,0,0,0-2.78-2.88c-1,0-1.28,1.4-1.28,2.46C39,39.17,39.92,41,41.32,41Z"/></svg>