<svg xmlns="http://www.w3.org/2000/svg" width="55.33" height="55.33" viewBox="0 0 55.33 55.33"><polyline points="17.66 52.66 2.66 52.66 2.66 37.66" fill="none" stroke="#000" stroke-miterlimit="10" stroke-width="2"/><polyline points="52.66 37.66 52.66 52.66 37.66 52.66" fill="none" stroke="#000" stroke-miterlimit="10" stroke-width="2"/><polyline points="37.66 2.66 52.66 2.66 52.66 17.66" fill="none" stroke="#000" stroke-miterlimit="10" stroke-width="2"/><polyline points="2.66 17.66 2.66 2.66 17.66 2.66" fill="none" stroke="#000" stroke-miterlimit="10" stroke-width="2"/><path d="M25.08,22.79c.44.2,1.1.3,1.1.6s-.42.32-.64.34-1.46-.12-2.42-.12-2.13.12-2.27.12-.66-.14-.66-.34.66-.4,1.11-.6a1.62,1.62,0,0,0,.93-1.68L22,14.81c0-.4-.37-.31-.53.06l-2.7,6.2a9.11,9.11,0,0,1-1.1,1.9c-.2,0-.36-.16-.78-1.24l-2.46-6.3c-.29-.76-.47-.5-.5,0L13.57,21c0,.54.1,1.52.62,1.76s1.1.3,1.1.6-.42.32-.64.34-1-.12-2-.12-1.7.12-1.84.12-.66-.14-.66-.34.64-.4,1.1-.6a2.49,2.49,0,0,0,1.16-2.1l.68-5.32c.18-1.42-.14-1.8-.64-2.26s-1.08-.64-1.08-1,.44-.28.68-.28c.72,0,1.3.1,2.22.1.54,0,.88.36,1.26,1.26L17.89,19c.17.41.26.74.62,0l3.14-6.52c.23-.46.5-.46,1-.46s1.9-.2,2.54-.2c.24,0,.32.14.32.34s-.16.26-1,.6c-.62.26-.84.66-.78,1.8l.34,6.6A1.74,1.74,0,0,0,25.08,22.79Z"/><path d="M38.55,15.87A3.69,3.69,0,0,1,41,15.09a2.69,2.69,0,0,1,2.51,2.78v3.62a1.32,1.32,0,0,0,.76,1.32c.54.16.72.32.72.52s0,.4-.54.4-1.44-.12-1.76-.12-1,.12-1.49.12-.59-.2-.59-.4.23-.36.77-.52c.36-.1.47-.78.47-1.28V18.47c0-1.18-.7-2.34-1.75-2.34a1.94,1.94,0,0,0-2,2.2v3.2c0,.5.08,1.16.46,1.28.54.16.76.32.76.52s-.06.4-.58.4-1.14-.12-1.46-.12-1,.12-1.48.12-.6-.2-.6-.4.24-.36.78-.52c.36-.1.46-.78.46-1.28V18.47c0-1.18-.7-2.34-1.74-2.34s-2,.68-2,2.2l0,3.2c0,.5.08,1.16.46,1.28.54.16.76.32.76.52s-.06.4-.58.4-1.14-.12-1.46-.12-1.34.12-1.78.12-.6-.2-.6-.4.24-.36.78-.52a1.28,1.28,0,0,0,.76-1.28V17.65a1.28,1.28,0,0,0-.82-1c-.22-.08-.42-.2-.42-.42s.32-.38.58-.5a15.63,15.63,0,0,1,2.08-.78c.24,0,.24.18.24.56V16c0,.3.24,0,.4-.12a3.69,3.69,0,0,1,2.48-.78,2.48,2.48,0,0,1,2.06,1.22c.06.08.1.1.14.1S38.17,16.19,38.55,15.87Z"/><path d="M18.67,37a4.74,4.74,0,0,1-4.48,4.78,4.34,4.34,0,0,1,0-8.68C16.37,33.09,18.67,34.81,18.67,37Zm-4.38,3.46a3.13,3.13,0,1,0-.2-6.26c-1.54,0-2.86,1.72-2.86,3.26A3.16,3.16,0,0,0,14.29,40.45Z"/><path d="M31.87,37a4.74,4.74,0,0,1-4.48,4.78,4.34,4.34,0,0,1,0-8.68C29.57,33.09,31.87,34.81,31.87,37Zm-4.38,3.46a3.13,3.13,0,1,0-.2-6.26c-1.54,0-2.86,1.72-2.86,3.26A3.16,3.16,0,0,0,27.49,40.45Z"/><path d="M42.69,33.63v6c0,.2,0,.28.42.28h2c.22,0,.32.12.32.38a.93.93,0,0,1-1,.86H43.05c-.28,0-.36,0-.36.3v2.62a1.07,1.07,0,0,1-1.12,1c-.44,0-.54-.3-.54-.6v-3c0-.24,0-.3-.28-.3h-4c-.2,0-.3-.24-.3-.48s.34-.6.66-1l4.5-6.26a.83.83,0,0,1,.68-.38C42.59,33.05,42.69,33.21,42.69,33.63ZM38.39,40h2.38c.22,0,.26,0,.26-.26V36c0-.22,0-.32-.18-.08l-2.7,3.72C38,39.87,38,40,38.39,40Z"/></svg>