<?xml version="1.0" encoding="utf-8"?>
<!-- Generator: Adobe Illustrator 26.1.0, SVG Export Plug-In . SVG Version: 6.00 Build 0)  -->
<svg version="1.1" id="Layer_1" xmlns="http://www.w3.org/2000/svg" xmlns:xlink="http://www.w3.org/1999/xlink" x="0px" y="0px"
	 viewBox="0 0 55.3 55.3" style="enable-background:new 0 0 55.3 55.3;" xml:space="preserve">
<style type="text/css">
	.st0{fill:none;stroke:#000000;stroke-width:2;stroke-miterlimit:10;}
</style>
<polyline class="st0" points="17.7,52.7 2.7,52.7 2.7,37.7 "/>
<polyline class="st0" points="52.7,37.7 52.7,52.7 37.7,52.7 "/>
<polyline class="st0" points="37.7,2.7 52.7,2.7 52.7,17.7 "/>
<polyline class="st0" points="2.7,17.7 2.7,2.7 17.7,2.7 "/>
<path d="M25.1,22.8c0.4,0.2,1.1,0.3,1.1,0.6s-0.4,0.3-0.6,0.3s-1.5-0.1-2.4-0.1s-2.1,0.1-2.3,0.1s-0.7-0.1-0.7-0.3s0.7-0.4,1.1-0.6
	c0.6-0.3,1-1,0.9-1.7L22,14.9c0-0.4-0.4-0.3-0.5,0.1l-2.7,6.2c-0.3,0.7-0.7,1.3-1.1,1.9c-0.2,0-0.4-0.2-0.8-1.2l-2.5-6.3
	c-0.3-0.8-0.5-0.5-0.5,0L13.6,21c0,0.5,0.1,1.5,0.6,1.8s1.1,0.3,1.1,0.6s-0.4,0.3-0.6,0.3s-1-0.1-2-0.1s-1.7,0.1-1.8,0.1
	s-0.7-0.1-0.7-0.3s0.6-0.4,1.1-0.6c0.7-0.5,1.2-1.2,1.2-2.1l0.7-5.3c0.2-1.4-0.1-1.8-0.6-2.3s-1.1-0.6-1.1-1s0.4-0.3,0.7-0.3
	c0.7,0,1.3,0.1,2.2,0.1c0.5,0,0.9,0.4,1.3,1.3l2.4,5.8c0.2,0.4,0.3,0.7,0.6,0l3.1-6.5c0.2-0.5,0.5-0.5,1-0.5s1.9-0.2,2.5-0.2
	c0.2,0,0.3,0.1,0.3,0.3s-0.2,0.3-1,0.6c-0.6,0.3-0.8,0.7-0.8,1.8l0.3,6.6C24,21.9,24.4,22.5,25.1,22.8z"/>
<path d="M38.6,15.9c0.7-0.5,1.6-0.8,2.4-0.8c1.4,0.1,2.6,1.3,2.5,2.8v3.6c-0.1,0.6,0.3,1.1,0.8,1.3c0.5,0.2,0.7,0.3,0.7,0.5
	s0,0.4-0.5,0.4s-1.4-0.1-1.8-0.1s-1,0.1-1.5,0.1s-0.6-0.2-0.6-0.4s0.2-0.4,0.8-0.5c0.4-0.1,0.5-0.8,0.5-1.3v-3.1
	c0-1.2-0.7-2.3-1.7-2.3c-1.1,0-2,0.8-2,1.9c0,0.1,0,0.2,0,0.3v3.2c0,0.5,0.1,1.2,0.5,1.3s0.8,0.3,0.8,0.5s-0.1,0.4-0.6,0.4
	s-1.2-0.1-1.5-0.1s-1,0.1-1.5,0.1s-0.6-0.2-0.6-0.4s0.2-0.4,0.8-0.5c0.4-0.1,0.5-0.8,0.5-1.3v-3.1c0-1.2-0.7-2.3-1.7-2.3
	s-2,0.7-2,2.2v3.2c0,0.5,0.1,1.2,0.5,1.3c0.5,0.2,0.8,0.3,0.8,0.5s-0.1,0.4-0.6,0.4s-1.1-0.1-1.5-0.1s-1.3,0.1-1.8,0.1
	s-0.6-0.2-0.6-0.4s0.2-0.4,0.8-0.5c0.5-0.2,0.8-0.7,0.8-1.3v-3.9c-0.1-0.5-0.4-0.8-0.8-1c-0.2-0.1-0.4-0.2-0.4-0.4s0.3-0.4,0.6-0.5
	c0.7-0.3,1.4-0.6,2.2-0.8c0.2,0,0.2,0.2,0.2,0.6V16c0,0.3,0.2,0,0.4-0.1c0.7-0.6,1.6-0.8,2.5-0.8s1.6,0.5,2.1,1.2
	c0,0.1,0.1,0.1,0.1,0.1S38.2,16.2,38.6,15.9z"/>
<path d="M19.8,37c0,2.5-1.9,4.6-4.5,4.8c-2.4,0-4.3-1.9-4.3-4.3c0-2.4,1.9-4.3,4.3-4.3C17.5,33.1,19.8,34.8,19.8,37z M15.4,40.5
	c1.7-0.1,3.1-1.5,3-3.2s-1.5-3.1-3.2-3l0,0c-1.5,0-2.9,1.7-2.9,3.3C12.4,39.1,13.8,40.4,15.4,40.5z"/>
<path d="M29.5,39.7c-0.1,0.5,0.3,0.9,0.8,1c0.5,0.2,0.9,0.3,0.9,0.5s-0.2,0.4-0.7,0.4s-1.4-0.1-1.8-0.1s-1.3,0.1-1.8,0.1
	s-0.7-0.2-0.7-0.4s0.3-0.4,0.9-0.5c0.5-0.1,0.8-0.5,0.8-1V35c0-0.5-0.3-0.9-0.8-1c-0.5-0.2-0.8-0.3-0.8-0.5s0.2-0.4,0.7-0.4
	s1.3,0.1,1.7,0.1s1.2-0.1,1.6-0.1s0.7,0.2,0.7,0.4s-0.2,0.4-0.8,0.5c-0.5,0.1-0.8,0.5-0.7,1L29.5,39.7z"/>
<path d="M42.6,39.7c-0.1,0.5,0.3,0.9,0.8,1c0.5,0.2,0.9,0.3,0.9,0.5s-0.2,0.4-0.7,0.4s-1.4-0.1-1.8-0.1c-0.4,0-1.3,0.1-1.8,0.1
	s-0.7-0.2-0.7-0.4s0.3-0.4,0.9-0.5c0.5-0.1,0.8-0.5,0.8-1V35c0-0.5-0.3-0.9-0.8-1c-0.5-0.2-0.8-0.3-0.8-0.5s0.2-0.4,0.7-0.4
	s1.3,0.1,1.7,0.1s1.2-0.1,1.6-0.1c0.4,0,0.7,0.2,0.7,0.4s-0.2,0.4-0.8,0.5c-0.5,0.1-0.8,0.5-0.7,1V39.7z"/>
</svg>
