<svg xmlns="http://www.w3.org/2000/svg" width="702.9" height="78.13" viewBox="0 0 702.9 78.13"><path d="M3.94,15.54c-.74-.27-1.56-.81-1.56-1.56s1-1.29,2-1.43c2.72-.48,6.39-1.63,7.07-1.63s.82.54.82,1.83V49.88c0,1.7.75,3.8,2.58,4.35s2.93,1.09,2.93,1.77-.55,1.36-2.32,1.36c-1.49,0-4.89-.41-6-.41-1.36,0-4.55.41-6,.41C1.63,57.36,1,56.68,1,56s1.16-1.23,3-1.77,2.58-2.65,2.58-4.35V18.67A3.75,3.75,0,0,0,3.94,15.54Z"/><path d="M48.75,39.68H34.41c-1,0-1.09.13-1.3.68a4.37,4.37,0,0,0-.27,2c0,5.17,3.2,10.74,8.57,10.74,3.4,0,6.39-1.56,7.07-1.56s1,.27,1,1c0,2-3.94,5.23-10.61,5.23-7.54,0-11.76-7.34-11.76-15A14.48,14.48,0,0,1,41.82,28c4.62,0,9,3.61,9,7.07C50.79,36.89,50.52,39.68,48.75,39.68ZM34.88,36.55h9c.68,0,1-1.16,1-2.11,0-2-2-3.33-4-3.33-4.08,0-6.87,3.33-6.87,4.69C34,36.26,34.07,36.55,34.88,36.55Z"/><path d="M75.75,29.62c.47.2.54.4.75,1.08A20.23,20.23,0,0,1,76.84,34c0,.81,0,1.49-.82,1.49a2.17,2.17,0,0,1-2-1.7c-.49-1.62-2.51-2.72-4.62-2.72A3,3,0,0,0,66.23,34c0,1.9,1.41,3,2.92,4.14l5.58,4.22c1.9,1.43,3.26,3.06,3.26,5.44a10,10,0,0,1-10.26,9.92,15.87,15.87,0,0,1-4.49-.54c-1-.41-1.36-.47-1.7-1.36a18,18,0,0,1-1.16-4.28c0-1.16.07-2.18.75-2.18s2,.61,3,2.72c.89,1.84,3,2.59,5.24,2.59,2.09,0,4-1.37,4-3.4,0-3-1.4-3.72-3.06-4.9L67.05,44.1c-3-2.15-5.72-4.22-5.72-7.62A8.69,8.69,0,0,1,70,28C72.15,28,73.61,28.72,75.75,29.62Z"/><path d="M130.28,39.68H115.94c-1,0-1.09.13-1.3.68a4.37,4.37,0,0,0-.27,2c0,5.17,3.2,10.74,8.57,10.74,3.4,0,6.39-1.56,7.07-1.56s1,.27,1,1c0,2-3.94,5.23-10.61,5.23-7.54,0-11.76-7.34-11.76-15A14.48,14.48,0,0,1,123.35,28c4.62,0,9,3.61,9,7.07C132.32,36.89,132.05,39.68,130.28,39.68Zm-13.87-3.13h9c.68,0,1-1.16,1-2.11,0-2-2-3.33-4-3.33-4.08,0-6.87,3.33-6.87,4.69C115.53,36.26,115.6,36.55,116.41,36.55Zm3.81-12.65c-.61,0-.61-.27-.61-.88,0-1,3.87-8.77,5.17-11a2.38,2.38,0,0,1,1.83-1.23c1.7,0,3.67.48,3.67,1.57s-5.91,7.81-8,10.06C121.72,23,120.76,23.9,120.22,23.9Z"/><path d="M168,12.75V51.51c0,1.56.41,1.9,1.09,1.9.88,0,3.13-.4,3.67-.4.34,0,.88.61.88,1.08a1.71,1.71,0,0,1-.88,1.7,51.64,51.64,0,0,1-9,2.25c-.55,0-.89-.62-1-.95-.2-.68-.4-1.57-.61-2.59-.13-.68-.34-.75-.81-.07a8.29,8.29,0,0,1-6.94,3.33c-6.93,0-12.44-6-12.44-12.91,0-8.5,5.57-16.87,14.14-16.87a8.2,8.2,0,0,1,5.3,1.77c.62.55.75.21.89-1.09v-10c0-1.16-1.16-2.52-2.79-3.13-.75-.27-1.56-.81-1.56-1.56s1-1.29,2-1.43c2.72-.48,6.53-1.63,7.21-1.63S168,11.46,168,12.75ZM157.08,53.41c2.65,0,5.3-1.49,5.3-4.21V38.8a7.79,7.79,0,0,0-7.62-7.89c-4.76,0-6.46,5.71-6.46,10.47C148.3,47.5,151.23,53.41,157.08,53.41Z"/><path d="M184.55,33.22c-.75-.27-1.43-.68-1.43-1.43s1.09-1.29,2-1.7a52.92,52.92,0,0,1,7.07-2.65c.82,0,.82.61.82,2V49.88c0,1.7.75,3.8,2.58,4.35s2.93,1.09,2.93,1.77-.55,1.36-2.32,1.36c-1.49,0-4.89-.41-6-.41-1.36,0-4.55.41-6.05.41-1.77,0-2.38-.68-2.38-1.36s1.15-1.23,3-1.77,2.58-2.65,2.58-4.35V36.69A4.35,4.35,0,0,0,184.55,33.22Zm9-16.18a3.74,3.74,0,1,1-3.74-3.67A3.74,3.74,0,0,1,193.52,17Z"/><path d="M211.61,50V33.83c0-.61.41-.95-2.11-.95-.61,0-2.17-.27-2.17-1,0-.95,2.85-2.86,4.55-4.29,1-.81,3.54-3.4,4.42-3.4s.95.55.95,1.7v1.91c0,.68.62,1,1.5,1h6.59c1.09,0,1.36.88,1.36,1.56s-.68,2.45-1.63,2.45h-6.73c-.81,0-1.09.34-1.09,1.29V46.89c0,4.76,1.16,6.25,3.54,6.25s4.21-1.22,4.89-1.22,1,.27,1,.95c0,1.56-3.67,4.89-7.75,4.89S211.61,55.79,211.61,50Z"/><path d="M239,33.22c-.74-.27-1.42-.68-1.42-1.43s1.08-1.29,2-1.7a52.92,52.92,0,0,1,7.07-2.65c.82,0,.82.61.82,2V49.88c0,1.7.74,3.8,2.58,4.35S253,55.32,253,56s-.54,1.36-2.31,1.36c-1.49,0-4.89-.41-6-.41-1.36,0-4.56.41-6,.41-1.77,0-2.38-.68-2.38-1.36s1.15-1.23,3-1.77,2.58-2.65,2.58-4.35V36.69A4.34,4.34,0,0,0,239,33.22ZM248,17a3.74,3.74,0,1,1-3.74-3.67A3.74,3.74,0,0,1,248,17Z"/><path d="M292.32,41.58c0,8.77-6.93,16.18-15.64,16.18-8.29,0-14.41-7.07-14.41-15.16S269.68,28,277,28C284.91,28,292.32,33.7,292.32,41.58Zm-13.87,13c5,0,7.14-6.12,7.14-11.15,0-6.05-3.13-12.58-9-12.58-4.9,0-7.48,5.37-7.48,10.27C269.07,47.5,272.13,54.57,278.45,54.57Z"/><path d="M333.8,54.23c1.84.54,2.45,1.09,2.45,1.77s-.07,1.36-1.84,1.36c-1.49,0-4.89-.41-6-.41-1.36,0-3.53.41-5,.41-1.77,0-2-.68-2-1.36s.81-1.23,2.65-1.77c1.23-.34,1.57-2.65,1.57-4.35V39.47c0-4-2.38-7.95-5.92-7.95-3.94,0-6.66,2.31-6.66,7.48l-.07,10.88c0,1.7.27,3.94,1.56,4.35,1.84.54,2.59,1.09,2.59,1.77s-.21,1.36-2,1.36c-1.49,0-3.87-.41-5-.41-1.36,0-4.56.41-6.05.41-1.77,0-2-.68-2-1.36s.82-1.23,2.65-1.77,2.58-2.65,2.58-4.35V36.69a4.35,4.35,0,0,0-2.78-3.47c-.75-.27-1.43-.68-1.43-1.43s1.09-1.29,2-1.7a56.78,56.78,0,0,1,7.07-2.65c.82,0,.82.61.82,1.9V31c0,1,.81.07,1.36-.4A12.5,12.5,0,0,1,322.72,28c4.76,0,8.5,4.49,8.5,9.45V49.74C331.22,51.51,332,53.68,333.8,54.23Z"/><path d="M361.21,29.62c.47.2.54.4.75,1.08A20.23,20.23,0,0,1,362.3,34c0,.81,0,1.49-.82,1.49a2.16,2.16,0,0,1-2-1.7c-.49-1.62-2.52-2.72-4.62-2.72A3,3,0,0,0,351.69,34c0,1.9,1.4,3,2.92,4.14l5.58,4.22c1.9,1.43,3.26,3.06,3.26,5.44a10,10,0,0,1-10.27,9.92,15.85,15.85,0,0,1-4.48-.54c-1-.41-1.36-.47-1.7-1.36a18,18,0,0,1-1.16-4.28c0-1.16.07-2.18.75-2.18s2,.61,3,2.72c.88,1.84,3,2.59,5.24,2.59,2.09,0,4-1.37,4-3.4,0-3-1.4-3.72-3.06-4.9L352.5,44.1c-3-2.15-5.71-4.22-5.71-7.62A8.69,8.69,0,0,1,355.5,28C357.6,28,359.07,28.72,361.21,29.62Z"/><path d="M444.09,54.16c1.5.68,3.74,1,3.74,2,0,.68-1.42,1.09-2.17,1.16-.48,0-5-.41-8.23-.41s-7.21.41-7.68.41c-.75-.07-2.25-.48-2.25-1.16,0-1,2.25-1.36,3.74-2a5.5,5.5,0,0,0,3.2-5.71L433.56,27c-.06-1.36-1.23-1-1.77.21l-9.18,21.07c-.27.62-3.13,6.46-3.74,6.46s-1.22-.54-2.65-4.21l-8.37-21.42c-1-2.6-1.59-1.7-1.69.07l-1.16,19c-.14,1.83.34,5.16,2.11,6,1.49.68,3.74,1,3.74,2,0,.68-1.43,1.09-2.18,1.16-.48,0-3.47-.41-6.73-.41s-5.78.41-6.26.41c-.74-.07-2.24-.48-2.24-1.16,0-1,2.18-1.36,3.74-2,2.31-1,3.47-3.74,3.94-7.14l2.31-18.08c.62-4.83-.47-6.12-2.17-7.69-1.22-1.15-3.67-2.17-3.67-3.26s1.49-.95,2.31-.95c2.45,0,4.42.34,7.55.34,1.83,0,3,1.22,4.28,4.28l8,19.51c.56,1.39.86,2.51,2.1-.06l10.68-22.17c.75-1.56,1.7-1.56,3.47-1.56s6.46-.68,8.63-.68c.82,0,1.09.47,1.09,1.15s-.55.89-3.26,2c-2.11.89-2.86,2.25-2.66,6.12l1.16,22.44C441,51,441.78,53.14,444.09,54.16Z"/><path d="M506.18,54.16c1.49.68,3.74,1,3.74,2,0,.68-1.43,1.09-2.18,1.16-.47,0-5-.41-8.23-.41s-7.2.41-7.68.41c-.75-.07-2.24-.48-2.24-1.16,0-1,2.24-1.36,3.74-2a5.51,5.51,0,0,0,3.19-5.71L495.64,27c-.06-1.36-1.23-1-1.77.21l-9.18,21.07c-.27.62-3.12,6.46-3.74,6.46s-1.22-.54-2.65-4.21l-8.36-21.42c-1-2.6-1.59-1.7-1.7.07l-1.16,19c-.13,1.83.34,5.16,2.11,6,1.5.68,3.74,1,3.74,2,0,.68-1.43,1.09-2.18,1.16-.47,0-3.46-.41-6.73-.41s-5.78.41-6.25.41c-.75-.07-2.25-.48-2.25-1.16,0-1,2.18-1.36,3.74-2,2.32-1,3.47-3.74,3.95-7.14l2.31-18.08c.61-4.83-.48-6.12-2.18-7.69-1.22-1.15-3.67-2.17-3.67-3.26S461.17,17,462,17c2.45,0,4.42.34,7.55.34,1.84,0,3,1.22,4.28,4.28l8,19.51c.56,1.39.87,2.51,2.11-.06l10.67-22.17c.75-1.56,1.7-1.56,3.47-1.56s6.46-.68,8.63-.68c.82,0,1.09.47,1.09,1.15s-.54.89-3.26,2c-2.11.89-2.86,2.25-2.65,6.12L503,48.45C503.12,51,503.87,53.14,506.18,54.16Z"/><path d="M542,54.16c1.49.68,3.74,1,3.74,2,0,.68-1.43,1.09-2.18,1.16-.48,0-5-.41-8.23-.41s-7.2.41-7.68.41c-.75-.07-2.24-.48-2.24-1.16,0-1,2.24-1.36,3.73-2,2.32-1,3.2-2.38,3.2-5V41.45a5.27,5.27,0,0,0-1.09-3.4L524.75,26.9c-2.78-4.76-4.42-6.67-6.94-7.48-.61-.21-1.09-.55-1.09-1.16,0-.82,1.36-1.22,2.38-1.22,2.65,0,2.93.34,5.37.34S528.69,17,531,17c1,0,2.38.4,2.38,1.22,0,.61-.41.95-1,1.16-2,.68-3,2.36-2.31,3.67l6.19,10.61c.58,1,.79,1.13,1.42-.07l6-11.43c.43-.84-.75-2.31-2-2.72-.62-.2-1.16-.61-1.16-1.22,0-.82,1.36-1.22,2.38-1.22s3.88.34,4.9.34,3.33-.34,4.35-.34,2.38.4,2.38,1.22c0,.61-.55.95-1.16,1.16-4.08,1.36-5.7,2.22-8.09,6.8l-5.24,10c-1.07,2-1.22,2.79-1.22,3.74V49.2C538.82,51.78,539.7,53.14,542,54.16Z"/><path d="M604,36.14c0,11.63-8.57,21.9-20.19,21.9-12.18,0-21.49-8.5-21.49-20.88,0-12.85,9.65-20.6,23.12-20.6C594.71,16.56,604,26.22,604,36.14ZM584.79,54.91c8.09,0,11.62-8.64,11.62-16.73,0-8.84-4.69-18.49-13.53-18.49C575.4,19.69,570,27.3,570,34.78,570,44.23,575.34,54.91,584.79,54.91Z"/><path d="M628.79,49.27A4.65,4.65,0,0,0,632,54.16c1.5.68,3.74,1,3.74,2,0,.68-1.43,1.09-2.18,1.16-.47,0-5-.41-8.22-.41-2.93,0-7,.41-7.48.41-.75-.07-2.25-.48-2.25-1.16,0-1,2.25-1.36,3.74-2a4.65,4.65,0,0,0,3.2-4.89V24.45c0-3.88-1.7-3.94-5.58-5-.61-.21-1.08-.55-1.08-1.16,0-.82,1-1.16,2.38-1.22,6-.48,8.77-.68,14.82-.68,6.87,0,14.48,3,14.48,9.86,0,5.57-3.53,8.9-8.29,11.49-2.52,1.36-3.61,1.36-4.36,1.36s-1.22-.34-1.22-1.16,1-.82,2.92-2.45c2.66-2.24,4.15-4.69,4.15-8.22,0-4.56-4-7.89-8.57-7.89-2.44,0-3.39.54-3.39,1.56Z"/><path d="M673.73,35.12h5.85c2.17,0,2.92-.74,4.15-1.9.74-.68,1.36-1.7,2.1-1.7s.75.54.75,1.36c0,.54-.27,2.92-.27,3.94s.07,3.13.07,3.88-.21,1.77-.88,1.77c-.89,0-1.77-1.91-2.18-2.59a2.46,2.46,0,0,0-2.38-1.43H673.8c-1.29,0-1.63.35-1.63,1.64V51.51c0,1.77.61,2.65,2.58,2.65h9.52c5.24,0,6.12-2.17,8.09-6.32a2.32,2.32,0,0,1,1.84-1.29c.68,0,.95.68.95,1.7,0,1.9-2,6.93-2.58,7.81s-.68,1.3-1.84,1.3c-2.52,0-14.82-.34-22-.34-3.2,0-7.21.34-7.68.34-.75-.07-2.25-.48-2.25-1.16,0-1,2.25-1.36,3.74-2a4.65,4.65,0,0,0,3.2-4.89V24.45c0-3.88-1.7-3.94-5.58-5-.61-.21-1.08-.55-1.08-1.16,0-.82,1-1.22,2.37-1.22h19.52c2.85,0,6.87-.34,8.09-.34s1.63.34,1.77.95a45.37,45.37,0,0,1,.61,5.57c0,.82-.27,1.77-1.09,1.77s-1.83-1.22-2.45-2.58c-.54-1.16-2.24-2.25-5.5-2.25h-8.09c-1.84,0-2.11.55-2.11,1.43V33C672.17,34.65,672.78,35.12,673.73,35.12Z"/></svg>