<svg xmlns="http://www.w3.org/2000/svg" width="303.16" height="128.46" viewBox="0 0 303.16 128.46"><path d="M2.78,12.16c-.62-.22-1.3-.67-1.3-1.29S2.33,9.8,3.12,9.69C5.4,9.29,8.46,8.33,9,8.33s.68.45.68,1.52V40.61c0,1.41.62,3.16,2.16,3.61s2.44.9,2.44,1.46-.45,1.13-1.93,1.13c-1.25,0-4.09-.34-5-.34-1.13,0-3.8.34-5,.34-1.48,0-2-.56-2-1.13s1-1,2.5-1.46S5,42,5,40.61V14.76A3.14,3.14,0,0,0,2.78,12.16Z"/><path d="M40.2,32.16h-12c-.8,0-.91.12-1.08.57a3.53,3.53,0,0,0-.23,1.69c0,4.28,2.67,8.9,7.16,8.9,2.84,0,5.34-1.3,5.9-1.3s.85.23.85.79c0,1.63-3.29,4.34-8.85,4.34-6.31,0-9.83-6.09-9.83-12.45A12,12,0,0,1,34.41,22.47c3.86,0,7.49,3,7.49,5.86C41.9,29.85,41.68,32.16,40.2,32.16ZM28.62,29.57h7.49c.57,0,.85-1,.85-1.74,0-1.64-1.7-2.77-3.35-2.77-3.4,0-5.73,2.77-5.73,3.89C27.88,29.33,27.94,29.57,28.62,29.57Z"/><path d="M62.74,23.83c.4.16.46.33.63.9a16.24,16.24,0,0,1,.28,2.76c0,.67,0,1.24-.68,1.24a1.81,1.81,0,0,1-1.71-1.41c-.41-1.35-2.1-2.26-3.86-2.26a2.49,2.49,0,0,0-2.61,2.43c0,1.57,1.18,2.48,2.44,3.43l4.66,3.5c1.58,1.19,2.72,2.53,2.72,4.5A8.29,8.29,0,0,1,56,47.15a13.52,13.52,0,0,1-3.75-.45c-.85-.34-1.13-.4-1.42-1.13a15,15,0,0,1-1-3.55c0-1,.06-1.8.62-1.8s1.71.51,2.5,2.25c.74,1.52,2.5,2.14,4.37,2.14a3.08,3.08,0,0,0,3.35-2.81c0-2.48-1.16-3.08-2.55-4.06l-2.73-1.92c-2.53-1.77-4.77-3.49-4.77-6.3a7.23,7.23,0,0,1,7.27-7A11.58,11.58,0,0,1,62.74,23.83Z"/><path d="M108.28,32.16h-12c-.8,0-.91.12-1.08.57A3.53,3.53,0,0,0,95,34.42c0,4.28,2.67,8.9,7.15,8.9,2.84,0,5.34-1.3,5.91-1.3s.85.23.85.79c0,1.63-3.29,4.34-8.86,4.34-6.3,0-9.82-6.09-9.82-12.45a12,12,0,0,1,12.27-12.23c3.86,0,7.49,3,7.49,5.86C110,29.85,109.75,32.16,108.28,32.16ZM96.69,29.57h7.5c.57,0,.85-1,.85-1.74,0-1.64-1.7-2.77-3.35-2.77C98.28,25.06,96,27.83,96,29,96,29.33,96,29.57,96.69,29.57Zm3.18-10.48c-.51,0-.51-.22-.51-.73,0-.84,3.24-7.27,4.32-9.13a2,2,0,0,1,1.53-1c1.42,0,3.07.39,3.07,1.3s-4.94,6.47-6.7,8.33C101.12,18.36,100.33,19.09,99.87,19.09Z"/><path d="M139.79,9.85V42c0,1.29.34,1.57.91,1.57.73,0,2.61-.34,3.06-.34.29,0,.74.51.74.91a1.4,1.4,0,0,1-.74,1.4,43.78,43.78,0,0,1-7.49,1.86c-.46,0-.74-.5-.8-.79-.17-.56-.34-1.29-.51-2.14-.11-.56-.28-.62-.68,0a7,7,0,0,1-5.79,2.76A10.63,10.63,0,0,1,118.1,36.44c0-7,4.65-14,11.81-14a6.9,6.9,0,0,1,4.43,1.47c.51.45.62.17.74-.9V14.76a3.3,3.3,0,0,0-2.33-2.6c-.63-.22-1.31-.67-1.31-1.29s.85-1.07,1.65-1.18c2.27-.4,5.45-1.36,6-1.36S139.79,8.78,139.79,9.85Zm-9.14,33.69c2.21,0,4.43-1.24,4.43-3.49V31.43a6.48,6.48,0,0,0-6.36-6.53c-4,0-5.4,4.73-5.4,8.67C123.32,38.64,125.76,43.54,130.65,43.54Z"/><path d="M153.58,26.81c-.62-.22-1.19-.56-1.19-1.18s.91-1.07,1.65-1.41a44.45,44.45,0,0,1,5.9-2.2c.69,0,.69.51.69,1.64v17c0,1.41.62,3.16,2.15,3.61s2.44.9,2.44,1.46-.45,1.13-1.93,1.13c-1.24,0-4.08-.34-5-.34-1.14,0-3.81.34-5.05.34-1.48,0-2-.56-2-1.13s1-1,2.5-1.46,2.15-2.2,2.15-3.61V29.68A3.62,3.62,0,0,0,153.58,26.81Zm7.5-13.41a3.13,3.13,0,1,1-3.12-3A3.11,3.11,0,0,1,161.08,13.4Z"/><path d="M176.18,40.73V27.32c0-.51.34-.79-1.76-.79-.51,0-1.82-.23-1.82-.79,0-.79,2.39-2.37,3.81-3.55.79-.67,3-2.82,3.69-2.82s.79.46.79,1.41v1.58c0,.56.52.85,1.25.85h5.51a1.13,1.13,0,0,1,1.14,1.29c0,.56-.57,2-1.37,2H181.8c-.68,0-.91.28-.91,1.07V38.13c0,3.95,1,5.19,3,5.19s3.52-1,4.08-1,.86.23.86.79c0,1.3-3.07,4.06-6.48,4.06S176.18,45.51,176.18,40.73Z"/><path d="M199.06,26.81c-.62-.22-1.19-.56-1.19-1.18s.91-1.07,1.65-1.41a43.93,43.93,0,0,1,5.9-2.2c.68,0,.68.51.68,1.64v17c0,1.41.63,3.16,2.16,3.61s2.44.9,2.44,1.46-.45,1.13-1.93,1.13c-1.25,0-4.09-.34-5-.34-1.14,0-3.81.34-5.06.34-1.47,0-2-.56-2-1.13s1-1,2.49-1.46,2.16-2.2,2.16-3.61V29.68A3.62,3.62,0,0,0,199.06,26.81Zm7.5-13.41a3.13,3.13,0,1,1-3.12-3A3.11,3.11,0,0,1,206.56,13.4Z"/><path d="M243.58,33.74a13.29,13.29,0,0,1-13.06,13.41c-6.93,0-12-5.86-12-12.56s6.19-12.12,12.32-12.12C237.39,22.47,243.58,27.21,243.58,33.74ZM232,44.5c4.2,0,6-5.07,6-9.24,0-5-2.62-10.42-7.55-10.42-4.09,0-6.25,4.45-6.25,8.51C224.16,38.64,226.71,44.5,232,44.5Z"/><path d="M278.21,44.22c1.54.45,2.05.9,2.05,1.46s-.06,1.13-1.54,1.13c-1.25,0-4.08-.34-5-.34-1.14,0-3,.34-4.2.34-1.48,0-1.71-.56-1.71-1.13s.68-1,2.22-1.46c1-.28,1.3-2.2,1.3-3.61V32c0-3.32-2-6.59-4.94-6.59-3.29,0-5.56,1.92-5.56,6.2l-.06,9c0,1.41.23,3.27,1.31,3.61,1.53.45,2.16.9,2.16,1.46s-.17,1.13-1.65,1.13c-1.25,0-3.24-.34-4.15-.34-1.13,0-3.8.34-5,.34-1.48,0-1.7-.56-1.7-1.13s.68-1,2.21-1.46,2.16-2.2,2.16-3.61V29.68a3.63,3.63,0,0,0-2.33-2.87c-.62-.22-1.19-.56-1.19-1.18s.91-1.07,1.65-1.41a47.2,47.2,0,0,1,5.9-2.2c.68,0,.68.51.68,1.58V25c0,.84.68,0,1.14-.34a10.51,10.51,0,0,1,7-2.2c4,0,7.09,3.72,7.09,7.83V40.5C276.05,42,276.68,43.77,278.21,44.22Z"/><path d="M301.09,23.83c.4.16.46.33.63.9a16.24,16.24,0,0,1,.28,2.76c0,.67,0,1.24-.68,1.24a1.8,1.8,0,0,1-1.7-1.41c-.41-1.35-2.1-2.26-3.86-2.26a2.49,2.49,0,0,0-2.61,2.43c0,1.57,1.17,2.48,2.44,3.43l4.65,3.5c1.59,1.19,2.73,2.53,2.73,4.5a8.3,8.3,0,0,1-8.58,8.23,13.43,13.43,0,0,1-3.74-.45c-.85-.34-1.14-.4-1.42-1.13a14.56,14.56,0,0,1-1-3.55c0-1,.06-1.8.63-1.8s1.7.51,2.5,2.25c.73,1.52,2.49,2.14,4.37,2.14a3.09,3.09,0,0,0,3.35-2.81c0-2.48-1.17-3.08-2.56-4.06l-2.72-1.92c-2.53-1.77-4.77-3.49-4.77-6.3a7.22,7.22,0,0,1,7.27-7A11.58,11.58,0,0,1,301.09,23.83Z"/><path d="M51,103.64c1.49.67,3.74,1,3.74,2,0,.68-1.43,1.09-2.18,1.16-.47,0-5-.41-8.22-.41s-7.21.41-7.69.41c-.75-.07-2.24-.48-2.24-1.16,0-1,2.24-1.36,3.74-2a5.52,5.52,0,0,0,3.19-5.72l-.88-21.41c-.06-1.36-1.23-1.05-1.77.2L29.48,97.79c-.27.61-3.12,6.46-3.74,6.46s-1.22-.55-2.65-4.22L14.73,78.61c-1-2.59-1.59-1.69-1.7.07l-1.16,19c-.13,1.84.34,5.17,2.11,6,1.5.67,3.74,1,3.74,2,0,.68-1.43,1.09-2.18,1.16-.47,0-3.46-.41-6.73-.41s-5.78.41-6.25.41c-.75-.07-2.25-.48-2.25-1.16,0-1,2.18-1.36,3.74-2,2.32-1,3.47-3.74,4-7.14l2.31-18.09c.61-4.83-.48-6.12-2.18-7.68-1.22-1.16-3.67-2.18-3.67-3.27s1.5-.95,2.31-.95c2.45,0,4.42.34,7.55.34,1.84,0,3,1.22,4.28,4.28l8,19.52c.56,1.38.87,2.5,2.11-.07L39.34,68.41c.75-1.56,1.7-1.56,3.47-1.56s6.46-.68,8.63-.68c.82,0,1.09.48,1.09,1.16s-.54.88-3.26,2c-2.11.88-2.86,2.24-2.65,6.12l1.15,22.43C47.91,100.44,48.66,102.62,51,103.64Z"/><path d="M113.05,103.64c1.5.67,3.74,1,3.74,2,0,.68-1.43,1.09-2.17,1.16-.48,0-5-.41-8.23-.41s-7.21.41-7.69.41c-.74-.07-2.24-.48-2.24-1.16,0-1,2.24-1.36,3.74-2a5.54,5.54,0,0,0,3.2-5.72l-.89-21.41c-.05-1.36-1.22-1.05-1.76.2L91.57,97.79c-.28.61-3.13,6.46-3.74,6.46s-1.23-.55-2.66-4.22L76.81,78.61c-1-2.59-1.59-1.69-1.7.07L74,97.65c-.14,1.84.34,5.17,2.1,6,1.5.67,3.74,1,3.74,2,0,.68-1.43,1.09-2.17,1.16-.48,0-3.47-.41-6.73-.41s-5.78.41-6.26.41c-.75-.07-2.24-.48-2.24-1.16,0-1,2.17-1.36,3.74-2,2.31-1,3.46-3.74,3.94-7.14l2.31-18.09c.61-4.83-.47-6.12-2.17-7.68-1.23-1.16-3.68-2.18-3.68-3.27s1.5-.95,2.32-.95c2.44,0,4.42.34,7.54.34,1.84,0,3,1.22,4.29,4.28l8,19.52c.57,1.38.87,2.5,2.11-.07l10.67-22.17c.75-1.56,1.7-1.56,3.47-1.56s6.46-.68,8.64-.68c.81,0,1.09.48,1.09,1.16s-.55.88-3.27,2c-2.11.88-2.85,2.24-2.65,6.12l1.16,22.43C110,100.44,110.74,102.62,113.05,103.64Z"/><path d="M148.89,103.64c1.5.67,3.74,1,3.74,2,0,.68-1.43,1.09-2.18,1.16-.47,0-5-.41-8.22-.41s-7.21.41-7.69.41c-.75-.07-2.24-.48-2.24-1.16,0-1,2.24-1.36,3.74-2,2.31-1,3.19-2.38,3.19-5V90.92a5.34,5.34,0,0,0-1.08-3.4l-6.53-11.15c-2.78-4.76-4.42-6.66-6.94-7.48-.61-.2-1.08-.54-1.08-1.16,0-.81,1.36-1.22,2.38-1.22,2.65,0,2.92.34,5.37.34s4.21-.34,6.52-.34c1,0,2.38.41,2.38,1.22,0,.62-.4,1-1,1.16-2,.68-3,2.36-2.31,3.67l6.19,10.61c.58,1,.8,1.14,1.43-.07l6-11.42c.43-.85-.75-2.31-2-2.72-.61-.21-1.16-.61-1.16-1.23,0-.81,1.36-1.22,2.38-1.22s3.88.34,4.9.34,3.33-.34,4.35-.34,2.38.41,2.38,1.22c0,.62-.54,1-1.16,1.16-4.08,1.36-5.69,2.22-8.09,6.8l-5.23,10c-1.07,2-1.23,2.79-1.23,3.74v9.25C145.69,101.26,146.58,102.62,148.89,103.64Z"/><path d="M210.9,85.62c0,11.62-8.57,21.89-20.19,21.89-12.17,0-21.49-8.5-21.49-20.87,0-12.85,9.66-20.61,23.12-20.61C201.59,66,210.9,75.69,210.9,85.62Zm-19.24,18.76c8.09,0,11.63-8.63,11.63-16.72,0-8.84-4.69-18.5-13.53-18.5-7.48,0-12.92,7.62-12.92,15.1C176.84,93.71,182.21,104.38,191.66,104.38Z"/><path d="M235.66,98.74a4.65,4.65,0,0,0,3.19,4.9c1.5.67,3.74,1,3.74,2,0,.68-1.43,1.09-2.17,1.16-.48,0-5-.41-8.23-.41-2.92,0-7,.41-7.48.41-.75-.07-2.24-.48-2.24-1.16,0-1,2.24-1.36,3.74-2a4.65,4.65,0,0,0,3.19-4.9V73.92c0-3.87-1.7-3.94-5.57-5-.62-.2-1.09-.54-1.09-1.16,0-.81.95-1.15,2.38-1.22,6-.48,8.77-.68,14.82-.68,6.87,0,14.48,3,14.48,9.86,0,5.57-3.53,8.91-8.29,11.49-2.52,1.36-3.61,1.36-4.35,1.36s-1.23-.34-1.23-1.16,1-.81,2.93-2.44c2.65-2.25,4.14-4.69,4.14-8.23,0-4.56-4-7.89-8.56-7.89-2.45,0-3.4.55-3.4,1.57Z"/><path d="M280.6,84.6h5.85c2.18,0,2.92-.75,4.15-1.91.75-.68,1.36-1.7,2.11-1.7s.74.55.74,1.36c0,.55-.27,2.93-.27,4s.07,3.12.07,3.87-.2,1.77-.88,1.77c-.89,0-1.77-1.9-2.18-2.58a2.46,2.46,0,0,0-2.38-1.43h-7.14c-1.29,0-1.63.34-1.63,1.63V101c0,1.77.61,2.66,2.58,2.66h9.52c5.24,0,6.12-2.18,8.09-6.33A2.32,2.32,0,0,1,301.07,96c.68,0,.95.68.95,1.7,0,1.9-2,6.93-2.58,7.82s-.68,1.29-1.84,1.29c-2.51,0-14.82-.34-22-.34-3.19,0-7.2.34-7.68.34-.75-.07-2.24-.48-2.24-1.16,0-1,2.24-1.36,3.74-2a4.65,4.65,0,0,0,3.19-4.9V73.92c0-3.87-1.7-3.94-5.58-5-.61-.2-1.08-.54-1.08-1.16,0-.81.95-1.22,2.38-1.22h19.51c2.86,0,6.87-.34,8.09-.34s1.63.34,1.77,1a45.31,45.31,0,0,1,.61,5.58c0,.81-.27,1.77-1.09,1.77s-1.83-1.23-2.44-2.59c-.55-1.15-2.25-2.24-5.51-2.24h-8.09c-1.84,0-2.11.54-2.11,1.43V82.49C279,84.12,279.65,84.6,280.6,84.6Z"/></svg>